# xmcd CD database file
#
# Track frame offsets:
#	150
#	31552
#	55440
#	91915
#	121405
#	162192
#
# Disc length: 2489 seconds
#
# Revision: 1
# Processed by: cddbd v1.5.1PL0 Copyright (c) Steve Scherf et al.
# Submitted via: CDex 1.51
#
DISCID=4009b706
DTITLE=J. R. Monterose - J. R. Monterose
DYEAR=1956
DGENRE=Jazz
TTITLE0=Wee-Jay
TTITLE1=The Third
TTITLE2=Bobbie Pin
TTITLE3=Mark V
TTITLE4=Ka-Link
TTITLE5=Beautious
EXTD=YEAR: 1956
EXTT0=
EXTT1=
EXTT2=
EXTT3=
EXTT4=
EXTT5=
PLAYORDER=
